<?xml version="1.0" encoding="utf-8"?><svg xml:space="preserve" viewBox="0 0 100 100" y="0" x="0" xmlns="http://www.w3.org/2000/svg" id="Layer_1" version="1.1" width="200px" height="200px" xmlns:xlink="http://www.w3.org/1999/xlink" style="width:100%;height:100%;background-size:initial;background-repeat:initial;background-position-y:initial;background-position-x:initial;background-origin:initial;background-image:initial;background-color:rgb(255, 255, 255);background-clip:initial;background-attachment:initial;animation-play-state:paused" ><g class="ldl-scale" style="transform-origin:50% 50%;transform:rotate(0deg) scale(0.8, 0.8);animation-play-state:paused" ><circle fill="#333" r="40" cy="50" cx="50" data-darkreader-inline-fill="" style="fill:rgb(51, 51, 51);animation-play-state:paused" ></circle>
<path fill="#f7faf8" d="M67.659 45.138a39.634 39.634 0 0 1 4.292 4.966 17.607 17.607 0 0 0-7.427-12.122 17.89 17.89 0 0 0-1.662-1.023 39.66 39.66 0 0 1 6.2 2.155 17.606 17.606 0 0 0-14.443-6.839 39.693 39.693 0 0 1 6.447-1.234 17.604 17.604 0 0 0-14.211.371c-.596.281-1.168.592-1.717.928a39.634 39.634 0 0 1 4.966-4.292 17.602 17.602 0 0 0-12.122 7.427 17.89 17.89 0 0 0-1.023 1.662 39.66 39.66 0 0 1 2.155-6.2 17.606 17.606 0 0 0-6.839 14.444 39.673 39.673 0 0 1-1.234-6.447 17.604 17.604 0 0 0 .371 14.211c.281.596.592 1.168.928 1.717a39.634 39.634 0 0 1-4.292-4.966 17.607 17.607 0 0 0 7.427 12.122 17.68 17.68 0 0 0 1.662 1.023 39.66 39.66 0 0 1-6.2-2.155 17.606 17.606 0 0 0 14.443 6.839 39.693 39.693 0 0 1-6.447 1.234 17.604 17.604 0 0 0 14.211-.371 17.964 17.964 0 0 0 1.717-.928 39.634 39.634 0 0 1-4.966 4.292 17.605 17.605 0 0 0 12.122-7.427 17.89 17.89 0 0 0 1.023-1.662 39.66 39.66 0 0 1-2.155 6.2 17.604 17.604 0 0 0 6.839-14.443 39.673 39.673 0 0 1 1.234 6.447 17.604 17.604 0 0 0-.371-14.211 17.431 17.431 0 0 0-.928-1.718z" data-darkreader-inline-fill="" style="fill:rgb(247, 250, 248);animation-play-state:paused" ></path>
<circle fill="#333" r="12.195" cy="50" cx="50" data-darkreader-inline-fill="" style="fill:rgb(51, 51, 51);animation-play-state:paused" ></circle>
<metadata xmlns:d="https://loading.io/stock/" style="animation-play-state:paused" ><d:name style="animation-play-state:paused" >blackhole</d:name>


<d:tags style="animation-play-state:paused" >blackhole,wormhole,pit,fall,dig,warp,whirl,spiral</d:tags>


<d:license style="animation-play-state:paused" >by</d:license>


<d:slug style="animation-play-state:paused" >ma9s83</d:slug></metadata></g><!-- generated by https://loading.io/ --></svg>